HIERARCHY
ROOT Hips
{
  OFFSET 64.689 87.035 29.2219
  CHANNELS 6 Xposition Yposition Zposition Zrotation Xrotation Yrotation
  JOINT spine
  {
    OFFSET 0 6.84637 0.3937
    CHANNELS 3 Zrotation Xrotation Yrotation
    JOINT spine1
    {
      OFFSET 0 9.49621 0
      CHANNELS 3 Zrotation Xrotation Yrotation
      JOINT spine2
      {
        OFFSET 0 9.09909 0
        CHANNELS 3 Zrotation Xrotation Yrotation
        JOINT Neck
        {
          OFFSET 0 23.3612 1.11378
          CHANNELS 3 Zrotation Xrotation Yrotation
          JOINT Head
          {
            OFFSET 0 7.05802 0
            CHANNELS 3 Zrotation Xrotation Yrotation
            End Site
            {
              OFFSET 0 17.0844 -5.63419
            }
          }
        }
        JOINT RightShoulder
        {
          OFFSET -3.83136 9.82631 -0.533491
          CHANNELS 3 Zrotation Xrotation Yrotation
          JOINT RightArm
          {
            OFFSET 0 12.8881 0
            CHANNELS 3 Zrotation Xrotation Yrotation
            JOINT RightArmRoll
            {
              OFFSET 0 6.50617 0
              CHANNELS 3 Zrotation Xrotation Yrotation
              JOINT RightForeArm
              {
                OFFSET 0 18.9501 0
                CHANNELS 3 Zrotation Xrotation Yrotation
                JOINT RightForeArmRoll
                {
                  OFFSET 0 7.30092 0
                  CHANNELS 3 Zrotation Xrotation Yrotation
                  JOINT RightHand
                  {
                    OFFSET 0 14.6514 0
                    CHANNELS 3 Zrotation Xrotation Yrotation
                    End Site
                    {
                      OFFSET 0 0 0
                    }
                  }
                }
              }
            }
          }
        }
        JOINT LeftShoulder
        {
          OFFSET 3.83136 9.82631 -0.533491
          CHANNELS 3 Zrotation Xrotation Yrotation
          JOINT LeftArm
          {
            OFFSET 0 12.8881 0
            CHANNELS 3 Zrotation Xrotation Yrotation
            JOINT LeftArmRoll
            {
              OFFSET 0 6.50617 0
              CHANNELS 3 Zrotation Xrotation Yrotation
              JOINT LeftForeArm
              {
                OFFSET 0 18.9501 0
                CHANNELS 3 Zrotation Xrotation Yrotation
                JOINT LeftForeArmRoll
                {
                  OFFSET 0 7.30092 0
                  CHANNELS 3 Zrotation Xrotation Yrotation
                  JOINT LeftHand
                  {
                    OFFSET 0 14.6514 0
                    CHANNELS 3 Zrotation Xrotation Yrotation
                    End Site
                    {
                      OFFSET 0 0 0
                    }
                  }
                }
              }
            }
          }
        }
      }
    }
  }
  JOINT RightUpLeg
  {
    OFFSET -6.06837 -1.11278 -0.933477
    CHANNELS 3 Zrotation Xrotation Yrotation
    JOINT RightUpLegRoll
    {
      OFFSET 0 17.1796 0
      CHANNELS 3 Zrotation Xrotation Yrotation
      JOINT RightLeg
      {
        OFFSET 0 -21.2743 0
        CHANNELS 3 Zrotation Xrotation Yrotation
        JOINT RightLegRoll
        {
          OFFSET 0 21.3439 0
          CHANNELS 3 Zrotation Xrotation Yrotation
          JOINT RightFoot
          {
            OFFSET 0 17.7652 0
            CHANNELS 3 Zrotation Xrotation Yrotation
            JOINT RightToeBase
            {
              OFFSET 0 14.8508 0
              CHANNELS 3 Zrotation Xrotation Yrotation
              End Site
              {
                OFFSET 0.0062947 7.19213 -0.829005
              }
            }
          }
        }
      }
    }
  }
  JOINT LeftUpLeg
  {
    OFFSET 6.06837 -1.11278 -0.933477
    CHANNELS 3 Zrotation Xrotation Yrotation
    JOINT LeftUpLegRoll
    {
      OFFSET 0 17.1797 0
      CHANNELS 3 Zrotation Xrotation Yrotation
      JOINT LeftLeg
      {
        OFFSET 0 21.2742 0
        CHANNELS 3 Zrotation Xrotation Yrotation
        JOINT LeftLegRoll
        {
          OFFSET 0 21.5412 0
          CHANNELS 3 Zrotation Xrotation Yrotation
          JOINT LeftFoot
          {
            OFFSET 0 17.5679 0
            CHANNELS 3 Zrotation Xrotation Yrotation
            JOINT LeftToeBase
            {
              OFFSET 0 14.8508 0
              CHANNELS 3 Zrotation Xrotation Yrotation
              End Site
              {
                OFFSET -0.0282102 7.19214 -0.829004
              }
            }
          }
        }
      }
    }
  }
}
MOTION
Frames: 6
Frame Time: 0.00208333
54.7571 92.5955 23.8526 1.74143 5.28822 -1.8347 1.48982 -2.36424 0.214582 2.98191 -0.723432 0.297155 2.97873 0.920335 0.247313 -26.9963 6.33877 -2.78148 27.4977 13.5581 -10.4515 15.331 -8.54741 -4.01842 29.6067 55.1187 91.6854 7.84514e-007 -2.28338e-006 -5.19072e-006 -7.13433 2.34607 1.39106 -9.78498e-006 -2.78363e-008 -3.00056 8.02888 -4.95147 0.697689 -55.7529 -11.5905 7.26886 22.8952 63.6076 -145.305 4.44593e-007 -2.44813e-006 3.65363e-006 19.6704 3.28415 -5.02571 1.15501e-005 8.15674e-006 3.00318 -8.02887 -4.95142 -0.697678 175.015 13.7544 0.108419 180 7.01591e-015 179.135 176.837 9.83985 -179.925 -4.84381e-006 2.17778e-006 0.0540982 -16.1598 64.6044 17.123 8.13649 25.2327 -3.48773 -178.821 11.8915 0.321106 4.54188e-006 -4.6773e-006 -0.917338 -3.27311 -15.8957 -0.203433 3.88615e-006 7.50891e-007 -0.260029 22.1488 71.9048 -23.4499 -8.13446 25.2328 3.48687 
54.8223 92.5588 23.7767 1.7554 5.34684 -1.84747 1.48194 -2.36226 0.201109 2.96575 -0.719803 0.270852 2.96288 0.923979 0.221277 -26.9387 6.41111 -2.73739 27.4364 13.5797 -10.4124 14.7647 -8.54349 -3.98577 29.1452 55.3611 92.4019 7.84514e-007 -2.28338e-006 -5.19072e-006 -7.28326 2.43183 1.4211 -9.78498e-006 -2.78363e-008 -3.00055 8.02888 -4.95147 0.697689 -55.3091 -11.591 7.27605 23.9651 63.443 -146.13 4.44593e-007 -2.44813e-006 3.65363e-006 19.7584 3.01823 -4.98999 1.15501e-005 8.15674e-006 3.00317 -8.02887 -4.95142 -0.697678 175.004 13.8193 0.119278 180 7.01592e-015 179.139 176.804 9.71372 -179.922 -4.84381e-006 2.17778e-006 0.0536157 -16.1404 64.575 17.1037 8.13649 25.2327 -3.48773 -178.838 11.9236 0.351562 4.54188e-006 -4.6773e-006 -0.914741 -3.27539 -15.7594 -0.202823 3.88615e-006 7.50891e-007 -0.25737 22.1257 71.887 -23.4274 -8.13448 25.2328 3.48688 
54.7864 92.5567 23.7828 1.76899 5.40622 -1.85856 1.47359 -2.36048 0.188067 2.94865 -0.716588 0.245459 2.94609 0.927212 0.196167 -26.8682 6.48681 -2.69731 27.3623 13.5999 -10.374 14.2121 -8.54478 -3.96035 28.6531 55.6012 93.1352 7.84514e-007 -2.28338e-006 -5.19072e-006 -7.43013 2.5152 1.45085 -9.78498e-006 -2.78363e-008 -3.00054 8.02888 -4.95147 0.697689 -54.8534 -11.591 7.28348 25.012 63.2791 -146.928 4.44593e-007 -2.44813e-006 3.65363e-006 19.8336 2.77017 -4.95471 1.15501e-005 8.15674e-006 3.00316 -8.02887 -4.95142 -0.697678 174.992 13.8843 0.131557 180 7.01592e-015 179.142 176.77 9.58433 -179.919 -4.84381e-006 2.17778e-006 0.0532061 -16.1218 64.5463 17.0849 8.13649 25.2327 -3.48773 -178.854 11.9584 0.380664 4.54188e-006 -4.6773e-006 -0.91214 -3.27836 -15.6235 -0.202255 3.88615e-006 7.50891e-007 -0.254705 22.1034 71.8696 -23.4055 -8.13451 25.2328 3.48689 
54.8051 92.5192 23.772 1.78233 5.46561 -1.86812 1.4648 -2.35873 0.175405 2.93068 -0.713414 0.22087 2.92841 0.930403 0.171876 -26.7871 6.56433 -2.66078 27.278 13.6201 -10.3364 13.6772 -8.55135 -3.94291 28.1203 55.8394 93.8912 7.84514e-007 -2.28338e-006 -5.19072e-006 -7.57447 2.59446 1.48009 -9.78498e-006 -2.78363e-008 -3.00054 8.02888 -4.95147 0.697689 -54.3887 -11.5915 7.29174 26.041 63.1142 -147.702 4.44593e-007 -2.44813e-006 3.65363e-006 19.8937 2.53997 -4.91956 1.15501e-005 8.15674e-006 3.00315 -8.02887 -4.95142 -0.697678 174.979 13.9496 0.145231 180 7.01593e-015 179.145 176.734 9.45426 -179.916 -4.84381e-006 2.17778e-006 0.0528898 -16.1042 64.5189 17.067 8.13649 25.2327 -3.48773 -178.868 11.9954 0.408248 4.54188e-006 -4.6773e-006 -0.909557 -3.28201 -15.4896 -0.201757 3.88615e-006 7.50891e-007 -0.252061 22.0819 71.8529 -23.3844 -8.13453 25.2328 3.4869 
54.8033 92.4905 23.7299 1.79552 5.52426 -1.87633 1.45559 -2.35683 0.163075 2.91189 -0.709911 0.196978 2.90992 0.933924 0.148295 -26.6978 6.64213 -2.62732 27.1858 13.6417 -10.2998 13.1639 -8.56328 -3.93418 27.5368 56.0762 94.6764 7.84514e-007 -2.28338e-006 -5.19072e-006 -7.71581 2.6679 1.50862 -9.78498e-006 -2.78363e-008 -3.00053 8.02888 -4.95147 0.697689 -53.9176 -11.5933 7.30144 27.0572 62.9466 -148.453 4.44593e-007 -2.44813e-006 3.65363e-006 19.9363 2.32764 -4.88421 1.15501e-005 8.15674e-006 3.00314 -8.02887 -4.95142 -0.697678 174.966 14.0152 0.160277 180 7.01593e-015 179.149 176.697 9.32607 -179.913 -4.84381e-006 2.17778e-006 0.0526873 -16.0878 64.4932 17.0501 8.13649 25.2327 -3.48773 -178.882 12.0344 0.434149 4.54188e-006 -4.6773e-006 -0.907012 -3.28637 -15.3594 -0.201359 3.88615e-006 7.50891e-007 -0.249465 22.0616 71.8369 -23.3644 -8.13455 25.2328 3.48691 
54.8001 92.472 23.7462 1.80867 5.58143 -1.88335 1.44602 -2.35458 0.151026 2.89237 -0.705708 0.173676 2.89068 0.938144 0.125316 -26.6024 6.71867 -2.59644 27.0882 13.6663 -10.2644 12.6761 -8.58063 -3.9349 26.8922 56.3116 95.4972 7.84514e-007 -2.28338e-006 -5.19072e-006 -7.85368 2.73379 1.53622 -9.78498e-006 -2.78363e-008 -3.00052 8.02888 -4.95147 0.697689 -53.4432 -11.5974 7.31316 28.0651 62.7743 -149.183 4.44593e-007 -2.44813e-006 3.65363e-006 19.9588 2.13317 -4.84834 1.15501e-005 8.15674e-006 3.00313 -8.02887 -4.95142 -0.697678 174.952 14.0812 0.176673 180 7.01594e-015 179.152 176.659 9.20232 -179.909 -4.84381e-006 2.17778e-006 0.0526194 -16.0728 64.4697 17.0346 8.13649 25.2327 -3.48773 -178.894 12.0751 0.458202 4.54188e-006 -4.6773e-006 -0.904529 -3.29144 -15.2344 -0.20109 3.88615e-006 7.50891e-007 -0.246945 22.0427 71.8221 -23.3457 -8.13457 25.2328 3.48692 
